HIERARCHY
ROOT root
{
  OFFSET 0 90.5966 0 //
  CHANNELS 6 Xposition Yposition Zposition Zrotation Xrotation Yrotation
  JOINT torso_1
  {
    OFFSET 0 4.93189 -1.1181
    CHANNELS 6 Xposition Yposition Zposition Zrotation Xrotation Yrotation
    JOINT torso_2
    {
      OFFSET 0 5.45428 1.04046
      CHANNELS 6 Xposition Yposition Zposition Zrotation Xrotation Yrotation
      JOINT torso_3
      {
        OFFSET -9.96389e-18 5.81666 0.111686
        CHANNELS 6 Xposition Yposition Zposition Zrotation Xrotation Yrotation
        JOINT torso_4
        {
          OFFSET -1.07264e-17 6.3178 -0.430704
          CHANNELS 6 Xposition Yposition Zposition Zrotation Xrotation Yrotation
          JOINT torso_5
          {
            OFFSET -1.91593e-17 7.38567 -1.4624
            CHANNELS 6 Xposition Yposition Zposition Zrotation Xrotation Yrotation
            JOINT torso_6
            {
              OFFSET -2.45986e-17 9.22288 -0.888062
              CHANNELS 6 Xposition Yposition Zposition Zrotation Xrotation Yrotation
              JOINT torso_7
              {
                OFFSET -2.82008e-17 10.2464 1.53133
                CHANNELS 6 Xposition Yposition Zposition Zrotation Xrotation Yrotation
                JOINT neck_1
                {
                  OFFSET -1.25459e-17 4.64811 0.694664
                  CHANNELS 6 Xposition Yposition Zposition Zrotation Xrotation Yrotation
                  JOINT neck_2
                  {
                    OFFSET -1.75924e-17 4.68175 0.4096
                    CHANNELS 6 Xposition Yposition Zposition Zrotation Xrotation Yrotation
                    JOINT head //
                    {
                      OFFSET -1.9515e-17 4.6908 0.74295
                      CHANNELS 6 Xposition Yposition Zposition Zrotation Xrotation Yrotation
                      End Site
                      {
                        OFFSET 0 0.1 0
                      }
                    }
                  }
                }
                JOINT l_shoulder
                {
                  OFFSET 1.19736 -7.38744 7.31601
                  CHANNELS 6 Xposition Yposition Zposition Zrotation Xrotation Yrotation
                  JOINT l_up_arm
                  {
                    OFFSET 12.5803 3.15559 -3.17425
                    CHANNELS 6 Xposition Yposition Zposition Zrotation Xrotation Yrotation
                    JOINT l_low_arm
                    {
                      OFFSET 28.3639 0.0580795 0.133078
                      CHANNELS 6 Xposition Yposition Zposition Zrotation Xrotation Yrotation
                      JOINT l_hand //
                      {
                        OFFSET 23.5335 0.0481878 0.110415
                        CHANNELS 6 Xposition Yposition Zposition Zrotation Xrotation Yrotation
                        End Site
                        {
                          OFFSET 0.1 0 0
                        }
                      }
                    }
                  }
                }
                JOINT r_shoulder
                {
                  OFFSET -1.19736 -7.38743 7.31591
                  CHANNELS 6 Xposition Yposition Zposition Zrotation Xrotation Yrotation
                  JOINT r_up_arm
                  {
                    OFFSET -12.5803 3.15559 -3.17425
                    CHANNELS 6 Xposition Yposition Zposition Zrotation Xrotation Yrotation
                    JOINT r_low_arm
                    {
                      OFFSET -28.3639 0.0580795 0.133078
                      CHANNELS 6 Xposition Yposition Zposition Zrotation Xrotation Yrotation
                      JOINT r_hand //
                      {
                        OFFSET -23.5335 0.0481876 0.110415
                        CHANNELS 6 Xposition Yposition Zposition Zrotation Xrotation Yrotation
                        End Site
                        {
                          OFFSET -0.1 0 0
                        }
                      }
                    }
                  }
                }
              }
            }
          }
        }
      }
    }
  }
  JOINT l_up_leg
  {
    OFFSET 8.96978 -4.08401 1.97395
    CHANNELS 6 Xposition Yposition Zposition Zrotation Xrotation Yrotation
    JOINT l_low_leg
    {
      OFFSET -0.827718 -37.6515 -0.63625
      CHANNELS 6 Xposition Yposition Zposition Zrotation Xrotation Yrotation
      JOINT l_foot
      {
        OFFSET -2.25899 -39.2341 -5.87393
        CHANNELS 6 Xposition Yposition Zposition Zrotation Xrotation Yrotation
        JOINT l_toes 
        {
          OFFSET 0.756579 -9.59872 12.1348
          CHANNELS 6 Xposition Yposition Zposition Zrotation Xrotation Yrotation
          End Site
          {
            OFFSET 0 0 0.1
          }
        }
      }
    }
  }
  JOINT r_up_leg
  {
    OFFSET -8.96978 -4.08401 1.97395
    CHANNELS 6 Xposition Yposition Zposition Zrotation Xrotation Yrotation
    JOINT r_low_leg
    {
      OFFSET 0.827718 -37.6515 -0.63625
      CHANNELS 6 Xposition Yposition Zposition Zrotation Xrotation Yrotation
      JOINT r_foot
      {
        OFFSET 2.25899 -39.2341 -5.87393
        CHANNELS 6 Xposition Yposition Zposition Zrotation Xrotation Yrotation
        JOINT r_toes
        {
          OFFSET -0.756579 -9.59872 12.1348
          CHANNELS 6 Xposition Yposition Zposition Zrotation Xrotation Yrotation
          End Site
          {
            OFFSET 0 0 0.1
          }
        }
      }
    }
  }
}
MOTION
Frames: 4
Frame Time: 0.020000
0 90.5966 0 -0 0 -0 0 4.93189 -1.1181 -0 0 -0 0 5.45428 1.04046 -0 0 -0 -9.96389e-18 5.81666 0.111686 -0 0 -0 -1.07264e-17 6.3178 -0.430704 -0 0 -0 -1.91593e-17 7.38567 -1.4624 -0 0 -0 -2.45986e-17 9.22288 -0.888062 -0 0 -0 -2.82008e-17 10.2464 1.53133 -0 0 -0 -1.25459e-17 4.64811 0.694664 -0 0 -0 -1.75924e-17 4.68175 0.4096 -0 0 -0 -1.9515e-17 4.6908 0.74295 -0 0 -0 1.19736 -7.38744 7.31601 -0 0 -0 12.5803 3.15559 -3.17425 -0 0 -0 28.3639 0.0580795 0.133078 -0 0 -0 23.5335 0.0481878 0.110415 -0 0 -0 -1.19736 -7.38743 7.31591 -0 0 -0 -12.5803 3.15559 -3.17425 -0 0 -0 -28.3639 0.0580795 0.133078 -0 0 -0 -23.5335 0.0481876 0.110415 -0 0 -0 8.96978 -4.08401 1.97395 -0 0 -0 -0.827718 -37.6515 -0.63625 -0 0 -0 -2.25899 -39.2341 -5.87393 -0 0 -0 0.756579 -9.59872 12.1348 -0 0 -0 -8.96978 -4.08401 1.97395 -0 0 -0 0.827718 -37.6515 -0.63625 -0 0 -0 2.25899 -39.2341 -5.87393 -0 0 -0 -0.756579 -9.59872 12.1348 -0 0 -0 
30.1956 96.8139 -71.2895 -8.13338 -10.8887 -96.3448 0 4.93189 -1.1181 -4.27918 1.9398 -1.19499 0 5.45428 1.04046 -3.16223 2.79117 -1.7249 -9.96389e-18 5.81666 0.111686 -2.45488 4.19963 -1.70737 -1.07264e-17 6.3178 -0.430704 -1.54409 6.37836 -1.82603 -1.91593e-17 7.38567 -1.4624 -1.14689 7.09029 -1.65872 -2.45986e-17 9.22288 -0.888062 -0.579798 7.53788 -1.86002 -2.82008e-17 10.2464 1.53133 0.00628315 -0.000576319 -0.0475156 -1.25459e-17 4.64811 0.694664 -1.00145 8.61065 1.56228 -1.75924e-17 4.68175 0.4096 -1.73696 1.50894 0.359219 -1.9515e-17 4.6908 0.74295 -6.55217 2.57716 9.21564 1.19736 -7.38744 7.31601 8.93497 -1.03849 -4.48009 12.5803 3.15559 -3.17425 -87.7679 34.9171 -6.20188 28.3639 0.0580795 0.133078 2.48873 -0.250172 -12.0768 23.5335 0.0481878 0.110415 2.27888 -45.2059 -5.54557 -1.19736 -7.38743 7.31591 -0.645234 -2.8789 0.383481 -12.5803 3.15559 -3.17425 83.1439 21.4242 1.78671 -28.3639 0.0580795 0.133078 -2.82991 -0.326679 13.7604 -23.5335 0.0481876 0.110415 3.72078 -50.6288 2.91596 8.96978 -4.08401 1.97395 76.0881 -5.77507 47.3194 -0.827718 -37.6515 -0.63625 -15.4337 45.6639 5.67724 -2.25899 -39.2341 -5.87393 -21.5145 6.9789 13.0938 0.756579 -9.59872 12.1348 -3.3615e-15 -9.39373e-16 1.56658e-16 -8.96978 -4.08401 1.97395 -12.4664 -3.42117 9.78261 0.827718 -37.6515 -0.63625 0.550926 2.05743 0.0260221 2.25899 -39.2341 -5.87393 13.1055 32.7595 -17.5274 -0.756579 -9.59872 12.1348 -1.18402e-15 -5.34596e-16 -1.27195e-14 
30.0635 96.9119 -71.3587 -8.15116 -10.8619 -96.3699 0 4.93189 -1.1181 -4.24964 1.97446 -1.20621 0 5.45428 1.04046 -3.14139 2.81062 -1.73243 -9.96389e-18 5.81666 0.111686 -2.43955 4.19567 -1.71379 -1.07264e-17 6.3178 -0.430704 -1.53587 6.3415 -1.8322 -1.91593e-17 7.38567 -1.4624 -1.14424 7.03331 -1.66679 -2.45986e-17 9.22288 -0.888062 -0.585766 7.46884 -1.86944 -2.82008e-17 10.2464 1.53133 0.00620479 -5.9287e-05 -0.0476323 -1.25459e-17 4.64811 0.694664 -1.00061 8.66336 1.55141 -1.75924e-17 4.68175 0.4096 -1.74831 1.57811 0.352337 -1.9515e-17 4.6908 0.74295 -6.55747 2.65894 9.19205 1.19736 -7.38744 7.31601 9.02604 -1.01772 -4.47713 12.5803 3.15559 -3.17425 -87.9134 35.0464 -6.19976 28.3639 0.0580795 0.133078 2.48849 -0.250124 -12.0757 23.5335 0.0481878 0.110415 2.36663 -45.2042 -5.44824 -1.19736 -7.38743 7.31591 -0.760141 -2.84602 0.366749 -12.5803 3.15559 -3.17425 83.2426 21.4638 1.67176 -28.3639 0.0580795 0.133078 -2.83249 -0.327295 13.7732 -23.5335 0.0481876 0.110415 3.82688 -50.8584 2.95163 8.96978 -4.08401 1.97395 75.728 -5.52306 47.2157 -0.827718 -37.6515 -0.63625 -15.2085 45.2436 5.52427 -2.25899 -39.2341 -5.87393 -21.5277 6.70416 13.015 0.756579 -9.59872 12.1348 2.93642e-15 -6.70717e-16 -1.11997e-16 -8.96978 -4.08401 1.97395 -12.4004 -3.28622 9.87327 0.827718 -37.6515 -0.63625 0.480249 1.79339 0.0237884 2.25899 -39.2341 -5.87393 13.3963 33.5502 -17.6788 -0.756579 -9.59872 12.1348 -4.1571e-15 -4.10717e-16 -1.25863e-14 
29.9378 97.0071 -71.4277 -8.15961 -10.8272 -96.3814 0 4.93189 -1.1181 -4.21732 2.01196 -1.21802 0 5.45428 1.04046 -3.11846 2.83137 -1.7405 -9.96389e-18 5.81666 0.111686 -2.42238 4.19136 -1.72084 -1.07264e-17 6.3178 -0.430704 -1.52605 6.30137 -1.83909 -1.91593e-17 7.38567 -1.4624 -1.14007 6.97181 -1.67583 -2.45986e-17 9.22288 -0.888062 -0.590506 7.39442 -1.88016 -2.82008e-17 10.2464 1.53133 0.00611804 0.000533261 -0.0477541 -1.25459e-17 4.64811 0.694664 -0.999424 8.70385 1.54638 -1.75924e-17 4.68175 0.4096 -1.75708 1.63727 0.348098 -1.9515e-17 4.6908 0.74295 -6.55759 2.72969 9.15602 1.19736 -7.38744 7.31601 9.12132 -0.994229 -4.4728 12.5803 3.15559 -3.17425 -88.0775 35.1558 -6.19158 28.3639 0.0580795 0.133078 2.48667 -0.249743 -12.0667 23.5335 0.0481878 0.110415 2.45227 -45.1652 -5.35632 -1.19736 -7.38743 7.31591 -0.871942 -2.80733 0.350853 -12.5803 3.15559 -3.17425 83.3345 21.5103 1.55707 -28.3639 0.0580795 0.133078 -2.83477 -0.327843 13.7845 -23.5335 0.0481876 0.110415 3.95469 -51.1741 3.01814 8.96978 -4.08401 1.97395 75.3869 -5.28115 47.1359 -0.827718 -37.6515 -0.63625 -14.9893 44.8283 5.37665 -2.25899 -39.2341 -5.87393 -21.5353 6.41808 12.9348 0.756579 -9.59872 12.1348 2.23343e-15 -6.98988e-16 -8.37265e-17 -8.96978 -4.08401 1.97395 -12.3248 -3.16393 9.95154 0.827718 -37.6515 -0.63625 0.409799 1.53021 0.021238 2.25899 -39.2341 -5.87393 13.6939 34.3581 -17.836 -0.756579 -9.59872 12.1348 -6.57727e-15 -3.09877e-16 -1.24854e-14 
